<?xml version="1.0" encoding="UTF-8"?><svg id="a" xmlns="http://www.w3.org/2000/svg" viewBox="0 0 24 24"><defs><style>.b{fill:#fff;}.c{fill:none;}</style></defs><path class="c" d="M-.03,22.69V1.48H24V22.69H-.03ZM.26,9.49c0,.42,.05,.86,.21,1.28,.1,.26,.22,.52,.39,.75,.13,.18,.3,.32,.53,.37,.08,.02,.15,.04,.23,.06,2.67,.73,5.33,1.46,8,2.19,.35,.1,.71,.19,1.06,.28,.04,.01,.07,0,.08-.04,.03-.07,.02-.11-.05-.14-.06-.02-.11-.04-.17-.06-.77-.21-1.54-.42-2.3-.64-2-.55-3.99-1.1-5.99-1.65-.25-.07-.5-.14-.75-.2-.16-.04-.3-.11-.39-.26-.13-.21-.26-.43-.37-.65-.28-.57-.33-1.17-.22-1.79,.07-.41,.23-.78,.51-1.1,.21-.23,.45-.34,.76-.31,.1,0,.2,.03,.3,.05,1.84,.37,3.67,.75,5.51,1.12,2.06,.42,4.13,.84,6.19,1.26,.12,.02,.25,.03,.35,.08,.23,.11,.49,.15,.73,.22,.06,.02,.12,.01,.18,.02,.05,0,.1-.02,.14-.05,1.54-1.21,3.08-2.41,4.62-3.61,1.09-.85,2.17-1.7,3.26-2.55,.03-.02,.05-.05,.06-.08,.02-.05,.02-.09-.05-.11-.07-.02-.14-.05-.21-.06-.84-.17-1.68-.34-2.51-.51-1.42-.29-2.84-.57-4.26-.86-1.16-.23-2.33-.46-3.49-.7-.47-.1-.91-.05-1.33,.16-.18,.09-.35,.18-.53,.28-.43,.23-.83,.5-1.28,.67-.03,0-.05,.02-.07,.04-2.66,1.43-5.31,2.86-7.97,4.3-.08,.04-.16,.08-.24,.11-.12,.05-.23,.11-.31,.2-.23,.27-.42,.56-.52,.91-.09,.33-.12,.66-.12,1.02Zm10.2,1.74v-.02c.24,.04,.47,.06,.7,.11,1.12,.23,2.25,.46,3.37,.68,.03,0,.07,.01,.09,0,.03-.01,.08-.04,.08-.07,.01-.12,.02-.24,.01-.36,0-.13,0-.13-.14-.16-.47-.1-.95-.18-1.42-.29-.46-.11-.92-.25-1.39-.36-.88-.22-1.77-.43-2.66-.64-.03,0-.06-.03-.1-.05v-.02s.09-.01,.13,0c.21,.03,.41,.05,.62,.09,.8,.16,1.6,.32,2.4,.49,.49,.1,.97,.23,1.46,.33,.36,.08,.72,.13,1.04,.31h.03c-.03-.14-.05-.28-.08-.42-.01-.06-.04-.08-.1-.1-1.06-.24-2.12-.49-3.18-.72-3.04-.67-6.08-1.33-9.12-1.99-.25-.05-.49-.1-.74-.15-.04,0-.08-.02-.12,.02-.05,.06-.1,.13-.08,.22,.02,.08,.1,.09,.17,.11h.03c.18,.05,.35,.08,.53,.12,1.08,.23,2.17,.46,3.23,.78,.29,.09,.58,.17,.88,.25,.04,.01,.09,.02,.1,.09-.02,0-.04,0-.05,0-1.61-.36-3.21-.72-4.82-1.08-.14-.03-.24,0-.34,.09-.07,.06-.1,.14-.1,.23,0,.05,.02,.08,.07,.09,.68,.14,1.36,.28,2.04,.42,1.33,.29,2.66,.58,3.99,.87,.24,.05,.47,.12,.71,.17,.05,.01,.09,.02,.11,.09-.1-.01-.19-.03-.28-.04-1.1-.21-2.21-.41-3.31-.62-1.01-.19-2.01-.41-2.99-.69-.13-.04-.26-.06-.4-.09-.03,.15-.09,.29-.08,.44,0,.04,.01,.06,.06,.07,.44,.1,.88,.21,1.31,.31,.8,.19,1.61,.38,2.41,.56,.63,.13,1.26,.24,1.89,.36,1.35,.26,2.68,.62,4,1.01,.04,.01,.08,.03,.09,.09-.02,0-.04,0-.06,0-.58-.13-1.17-.25-1.75-.38-1.14-.26-2.28-.5-3.42-.71-.92-.16-1.83-.35-2.73-.61-.56-.16-1.11-.36-1.69-.48-.03,0-.06-.01-.1-.02-.05,.15-.04,.29-.02,.43,.01,.05,.03,.09,.09,.11,.07,.02,.13,.05,.2,.07,1.12,.33,2.26,.6,3.4,.88,.81,.2,1.63,.38,2.43,.64,.23,.07,.47,.14,.7,.22,.05,.01,.1,.03,.11,.1l-.1-.03c-.95-.23-1.9-.48-2.85-.7-1.26-.3-2.52-.56-3.75-.96-.05-.02-.1-.01-.18-.02,.05,.15,.09,.27,.14,.4,.01,.05,.04,.06,.09,.07,.33,.08,.66,.15,.98,.24,2.86,.78,5.72,1.54,8.56,2.37,.04,.01,.08,.02,.12,.02,.07,0,.1-.03,.1-.1,0-.04,0-.08,0-.12,0-.11-.01-.22-.02-.32,0-.05-.03-.07-.08-.09-.1-.03-.21-.06-.31-.09-.23-.08-.46-.15-.69-.23-.02,0-.04-.02-.06-.03,.39,.03,.75,.18,1.14,.21,.02-.12,.04-.23,.05-.35,.02-.21,.04-.42,.11-.62,.01-.04,.01-.09,.02-.14,0-.04-.01-.06-.05-.07-.12-.04-.24-.08-.35-.13-.03-.01-.06-.04-.09-.06Zm4.56,.76s.04-.03,.05-.04c.16-.12,.31-.25,.47-.37,.55-.43,1.12-.83,1.73-1.16,.04-.02,.08-.03,.11,.01-.02,.02-.04,.04-.05,.05-.41,.32-.82,.64-1.23,.96-.37,.28-.73,.57-1.1,.85-.02,.01-.04,.04-.04,.06,0,.11,.01,.22,.02,.34,.07-.05,.14-.09,.2-.13,.14-.1,.28-.21,.42-.31,.07-.05,.15-.09,.24-.1-.02,.08-.07,.12-.12,.16-.23,.17-.46,.34-.69,.51-.02,.02-.04,.05-.04,.08,0,.2,0,.39,0,.59,0,.03,.01,.07,.03,.07,.02,0,.06,0,.08-.01,.29-.19,.58-.38,.85-.59,.77-.58,1.52-1.17,2.29-1.76,.18-.14,.37-.27,.55-.4,.04-.03,.07-.04,.11,0-.02,.02-.03,.03-.05,.05-.68,.58-1.35,1.17-2.03,1.75-.32,.28-.65,.55-1.01,.77-.23,.15-.48,.27-.72,.41-.04,.02-.1,.07-.1,.11,0,.19,0,.38,0,.57,0,.1,.03,.19,.05,.29,.04-.02,.06-.03,.08-.05,.13-.1,.25-.2,.38-.31,2.31-1.94,4.62-3.88,6.92-5.82,.11-.09,.21-.18,.31-.27,.06-.05,.09-.12,.09-.19,0-.14,0-.28,0-.42,0-.03-.02-.06-.04-.08-.01,0-.05,0-.07,.02-.27,.21-.53,.42-.8,.62-.42,.3-.84,.6-1.26,.9-.03,.02-.06,.04-.09-.01,.02-.02,.03-.03,.05-.05,.28-.23,.56-.47,.84-.7,.45-.37,.91-.73,1.31-1.15,.02-.02,.04-.06,.04-.1,0-.21,0-.43,0-.64,0-.03-.02-.06-.04-.08-.03-.03-.06,0-.08,.03-.55,.5-1.11,.98-1.7,1.44-.28,.22-.55,.44-.85,.62-.02,.01-.04,.02-.06,.03,.01-.03,.03-.05,.05-.07,.32-.29,.64-.57,.96-.86,.56-.5,1.12-.99,1.68-1.49,.03-.03,.05-.06,.05-.1,0-.16,0-.31,0-.47,0-.04-.02-.07-.04-.13-.08,.05-.14,.09-.19,.14-.15,.12-.3,.25-.45,.37-.53,.41-1.05,.83-1.58,1.24-.05,.04-.12,.07-.17,.11-.01,0-.03,0-.04,.01v-.02c.07-.09,.16-.18,.25-.26,.7-.59,1.4-1.17,2.11-1.75,.14-.11,.17-.3,.08-.46-.1,.07-.19,.14-.28,.21-1.15,.92-2.29,1.84-3.44,2.76-1.15,.93-2.3,1.85-3.45,2.78-.2,.16-.41,.28-.67,.28-.01,0-.04,.01-.04,.02,0,.1-.02,.19,.05,.27,.02,.03,.04,.03,.07,0,.07-.06,.15-.11,.22-.16,.73-.57,1.47-1.13,2.23-1.65,.11-.08,.23-.13,.35-.2,.02-.01,.04-.01,.06-.02-.01,.05-.03,.09-.06,.11-.23,.2-.46,.41-.7,.6-.69,.55-1.39,1.09-2.16,1.54-.01,0-.03,.02-.03,.03-.07,.2-.04,.38,.05,.57ZM1.13,18.66c0,.18,.04,.23,.2,.26,.37,.06,.74,.11,1.1,.18,.91,.16,1.81,.33,2.72,.49,1.31,.24,2.63,.48,3.94,.72,1.23,.23,2.47,.45,3.7,.68,1.34,.25,2.67,.49,4.01,.74,.25,.05,.5,.11,.76,.1,.11,0,.21,0,.32,0,.01-.12,.02-.22-.01-.33-.01-.04-.04-.06-.08-.07-.46-.07-.92-.14-1.38-.22-.06,0-.11-.05-.17-.07v-.03c.06,0,.12,0,.17,0,.4,.04,.79,.08,1.19,.12,.07,0,.14,0,.21,.01,.04,0,.07-.02,.07-.06,0-.04,0-.07-.05-.08-.09-.02-.18-.05-.27-.06-.44-.07-.88-.13-1.32-.2-.66-.11-1.32-.24-1.98-.36-.06-.01-.12-.04-.18-.06v-.03c.24,.02,.48,.02,.71,.05,.64,.09,1.29,.18,1.93,.27,.37,.05,.74,.1,1.11,.16,.05,0,.08,0,.08-.06,0-.07,.03-.15,.03-.22,0-.12,.01-.1-.1-.12-.76-.13-1.53-.25-2.29-.38-.35-.06-.7-.15-1.05-.22-.04,0-.08-.03-.07-.09,.02,0,.04,0,.05,0,.27,.04,.55,.08,.82,.12,.85,.12,1.71,.24,2.56,.36,.1,.01,.19-.07,.19-.18,0-.05-.02-.07-.08-.06-.07,.01-.15,.02-.22,.01-.52-.08-1.04-.18-1.55-.26-1.05-.17-2.1-.35-3.15-.52-.86-.14-1.72-.28-2.58-.42-.89-.14-1.78-.29-2.67-.43-.92-.15-1.83-.3-2.75-.45-1.12-.18-2.23-.36-3.35-.55-.18-.03-.37-.06-.56-.07-.12-.01-.16,.06-.14,.18,.09,.02,.19,.03,.28,.05,1.11,.19,2.22,.37,3.32,.56,1.22,.2,2.42,.5,3.61,.83,.02,0,.04,.01,.06,.02v.02s-.08,0-.12,0c-.8-.15-1.59-.31-2.39-.45-.79-.14-1.57-.28-2.36-.42-.68-.12-1.37-.24-2.05-.36-.12-.02-.24-.05-.36-.07-.05,.09-.05,.18-.03,.32,0,.05,.03,.08,.08,.09,.18,.04,.37,.07,.55,.11,1.07,.23,2.15,.44,3.23,.61,.95,.15,1.9,.3,2.85,.46,.8,.13,1.61,.26,2.41,.39,.18,.03,.37,.07,.56,.11-.07,.04-.14,.04-.23,.03-.84-.12-1.69-.23-2.53-.35-1.03-.15-2.07-.3-3.1-.46-1.15-.17-2.28-.41-3.41-.69-.09-.02-.18-.05-.27-.07-.06-.02-.1,.01-.08,.08,0,.04,0,.08,.02,.11,0,.02,.03,.05,.05,.05,.08,.03,.16,.05,.23,.07,.31,.08,.63,.16,.93,.29,.02,0,.04,.02,.06,.03-.4,.02-.78-.12-1.17-.18Zm17.03,1.04s-.04-.01-.05-.01c-.27-.05-.54-.09-.81-.14-1.28-.22-2.55-.44-3.83-.66-1.08-.19-2.17-.37-3.25-.56-1.08-.19-2.16-.37-3.24-.56-.96-.16-1.91-.33-2.87-.49-.94-.16-1.87-.32-2.81-.48-.18-.03-.35-.06-.53-.08-.16-.01-.25,.06-.28,.23,0,.02,0,.05,0,.07-.01,.32-.03,.64-.03,.96,0,.36,.04,.72,.13,1.07,.03,.14,.1,.25,.24,.3,.14,.05,.28,.1,.43,.13,1.02,.18,2.04,.36,3.06,.54,.98,.17,1.97,.35,2.95,.52,1.2,.21,2.41,.42,3.61,.64,1.12,.2,2.23,.39,3.35,.59,.54,.1,1.09,.19,1.63,.28,.6,.11,1.2,.23,1.8,.33,.1,.02,.21,.01,.32,.02-.01-.09-.03-.15-.03-.22,0-.06-.03-.08-.09-.08-.23-.02-.46-.02-.68-.06-.65-.11-1.3-.23-1.95-.35-1.28-.23-2.55-.46-3.83-.7-1.17-.21-2.33-.43-3.5-.64-1.27-.23-2.53-.47-3.8-.7-.96-.17-1.92-.38-2.89-.51-.1-.01-.18-.05-.24-.14-.09-.13-.16-.27-.18-.43-.04-.3-.06-.61-.08-.91-.01-.2,.04-.39,.19-.53,.02-.02,.04-.05,.05-.07,.02-.06,.05-.06,.1-.05,.14,.03,.29,.07,.43,.09,.96,.16,1.91,.32,2.87,.47,1.5,.24,3,.49,4.49,.73,1.24,.2,2.47,.4,3.71,.61,1.71,.28,3.42,.56,5.13,.84,.16,.03,.31,0,.48-.06ZM2.11,15.28c.02,.12,.04,.23,.07,.34,.03,.13,.12,.21,.26,.23,.15,.02,.29,.04,.44,.07,.95,.16,1.91,.33,2.86,.49,1.15,.2,2.3,.4,3.45,.59,.94,.16,1.88,.32,2.82,.48,.09,.02,.19,.03,.3,.05-.06-.09-.1-.17-.15-.25-.06-.09-.09-.2-.17-.26-.08-.06-.2-.06-.29-.1-.08-.03-.16-.06-.24-.1v-.02l.45,.05c-.1-.2-.13-.4-.25-.59-.09,.08-.17,.14-.24,.22-.07,.07-.14,.15-.21,.23,0,.01-.02,.02-.03,.03-.1,.06-.19,.12-.3,.17-.09,.04-.19,.07-.28,.1-.08,.02-.15-.07-.12-.15,.04-.1,.1-.2,.13-.3,.04-.11,.06-.23,.09-.35,.01-.06-.01-.09-.08-.09-.52-.07-1.05-.15-1.57-.21-1.04-.13-2.08-.24-3.12-.37-1.12-.14-2.23-.35-3.32-.65-.16-.04-.32-.08-.48-.13-.04,.11-.02,.21,0,.31,0,.04,.02,.06,.06,.07,.17,.04,.34,.08,.51,.12,.93,.22,1.86,.45,2.8,.62,0,0,.02,0,.02,.01-.04,.01-.07,.02-.1,.01-.12-.01-.24-.02-.35-.04-.42-.06-.84-.11-1.26-.2-.45-.09-.89-.22-1.34-.34-.1-.03-.2-.06-.32-.05Zm-1.39,1.15v.02s.07,.01,.1,.02c1.16,.2,2.32,.4,3.48,.6,1.08,.19,2.16,.37,3.24,.56,1.08,.19,2.17,.37,3.25,.56,1.01,.17,2.01,.35,3.02,.52,1.16,.2,2.31,.4,3.47,.6,.33,.06,.65,.11,.98,.17,.02,0,.06,0,.06,0,.03-.06,.08-.12,.06-.2-.04-.14,.02-.23,.15-.29,.05-.02,.1-.04,.13-.07,.07-.07,.14-.14,.19-.22,.69-.99,1.38-1.98,2.08-2.97,.83-1.19,1.66-2.37,2.49-3.56,.03-.04,.05-.09,.07-.14,.01-.03,0-.05-.03-.06-.07-.02-.14-.04-.21-.05-.12-.02-.24-.01-.34,.05-.02,.01-.04,.04-.04,.06-.02,.14-.04,.27-.05,.41-.01,.17-.07,.3-.17,.43-1.47,1.8-2.93,3.6-4.4,5.41-.22,.27-.43,.55-.72,.77-.06,.04-.11,.07-.18,.07-.05,0-.09,0-.14-.01-1.06-.18-2.12-.37-3.19-.55-.95-.16-1.89-.32-2.84-.48-1.12-.19-2.24-.38-3.35-.57-1.02-.17-2.03-.35-3.05-.52-.87-.15-1.73-.3-2.6-.45-.2-.04-.38-.12-.52-.28-.08-.09-.14-.2-.2-.31-.03-.06-.07-.08-.12-.04-.12,.1-.25,.2-.37,.31-.09,.08-.16,.16-.25,.25Zm20.15-3.76c-.02-.07,0-.11,.03-.15,.02-.03,.05-.06,.07-.08,.35-.43,.7-.85,1.05-1.28,.03-.04,.06-.08,.08-.12,.06-.1,.07-.2,.05-.31,0-.02-.02-.04-.03-.05-.02,.01-.03,.02-.05,.03,0,0-.01,.01-.02,.02-1.44,1.7-2.87,3.4-4.31,5.1-.09,.11-.05,.2-.04,.3,.09-.09,.18-.18,.26-.27,.34-.37,.68-.73,1.02-1.09,.06-.07,.14-.12,.21-.18l.02,.02s-.02,.04-.04,.06c-.08,.1-.16,.2-.24,.3-.42,.46-.83,.92-1.25,1.38-.07,.07-.13,.15-.18,.23-.05,.07-.04,.12,0,.19,.02-.02,.03-.03,.05-.05,.25-.28,.49-.55,.74-.83,.41-.46,.83-.91,1.3-1.31,.02-.02,.04-.03,.06-.05,0,.03-.02,.04-.03,.06-.2,.24-.39,.49-.59,.73-.5,.57-1,1.13-1.5,1.69-.07,.07-.12,.16-.17,.25-.05,.11-.06,.22-.02,.36,.06-.06,.11-.1,.16-.15,.06-.06,.11-.13,.17-.19,.05-.05,.12-.08,.2-.1-.14,.17-.27,.32-.4,.48-.06,.07-.12,.14-.17,.22-.06,.09-.04,.2,.05,.26,.08-.09,.16-.17,.23-.26,1.12-1.31,2.24-2.63,3.35-3.94,.33-.39,.66-.77,.99-1.16,.1-.12,.17-.26,.25-.39,.01-.02,.02-.06,.02-.08-.06-.27-.05-.55-.05-.83,0-.06-.02-.12-.04-.19-.03,.03-.05,.04-.06,.06-.08,.09-.17,.18-.25,.27-.23,.27-.45,.54-.68,.81-.08,.09-.16,.17-.25,.26Zm-12.79,2.52c-.15-.02-.28-.03-.42-.05-.58-.08-1.17-.16-1.75-.26-.72-.12-1.45-.23-2.17-.37-.47-.09-.94-.22-1.41-.33-.08-.02-.16-.01-.23-.01-.02,0-.04,.02-.05,.03-.02,.14-.05,.28,0,.41,.01,.03,.04,.05,.07,.06,.49,.1,.98,.21,1.48,.3,.91,.18,1.82,.28,2.74,.41,.74,.11,1.49,.21,2.23,.32,.68,.1,1.36,.21,2.05,.32,.03,0,.05,0,.06-.03,.05-.13,.07-.26,.05-.4,0-.05-.03-.07-.07-.09-.06-.02-.13-.04-.19-.06-.03-.01-.06-.03-.1-.05v-.02c.09,0,.18,0,.27,0,.03,0,.08-.02,.09-.04,.01-.07,.02-.14,0-.2,0-.05-.05-.08-.1-.09-1.3-.2-2.59-.41-3.89-.61-1.51-.24-3.01-.47-4.52-.71-.1-.02-.14,.02-.15,.12-.01,.09,.02,.14,.11,.16,.06,.02,.12,.03,.18,.05,1.37,.26,2.75,.52,4.12,.78,.49,.09,.99,.2,1.48,.3,.05,0,.09,.02,.11,.09Zm10.13,5.58l.02,.02s.08-.07,.11-.11c.1-.13,.19-.26,.29-.39,.02-.03,.06-.04,.09-.06h0l-.33,.58c.13,0,.16-.15,.28-.15-.01,.02-.02,.04-.03,.06-.14,.21-.28,.43-.43,.64-.06,.09-.08,.18-.06,.28,0,.03,.04,.06,.07,.07,.02,0,.07,0,.08-.03,.07-.08,.13-.16,.19-.25,1.54-2.3,3.09-4.6,4.63-6.9,.06-.09,.1-.19,.12-.3,.01-.13,.03-.26,.04-.39,0-.08,.02-.17,.02-.25,0-.04-.01-.08-.06-.08-.02,0-.05,.02-.06,.04-.1,.15-.21,.29-.31,.44-.38,.52-.75,1.04-1.13,1.56-.03,.04-.06,.08-.12,.08,.02-.06,.04-.11,.07-.16,.42-.6,.84-1.2,1.26-1.81,.12-.17,.23-.35,.34-.53,.1-.15,.1-.32,.06-.5-.08,.11-.15,.2-.22,.29-1.31,1.88-2.63,3.75-3.94,5.63-.29,.42-.57,.83-.82,1.28-.01,.02-.02,.05-.03,.07,.08,.02,.12-.03,.16-.08,.56-.83,1.12-1.65,1.68-2.48,.07-.11,.16-.21,.25-.31,.04-.05,.1-.09,.15-.14h.02c-.03,.07-.06,.13-.09,.18-.64,.96-1.29,1.91-1.93,2.87-.07,.1-.14,.19-.22,.27-.16,.16-.18,.36-.17,.56Zm-5.93-3.63c0-.07,.02-.13,.03-.2,.04-.38,.07-.76,.12-1.14,.09-.71,.16-1.42,.17-2.14,0-.41,.02-.83,.08-1.24,.02-.15,.02-.31,.03-.47,0-.05-.02-.08-.08-.1-.27-.07-.53-.15-.8-.22-.2-.05-.41-.08-.61-.12-.04,0-.06,0-.07,.04-.01,.05-.03,.1-.04,.15-.04,.29-.09,.58-.1,.88-.02,.4,0,.8,0,1.19,0,.44,.04,.87-.03,1.31-.08,.45-.1,.91-.21,1.36-.01,.04,0,.09-.01,.15,.07-.04,.13-.07,.19-.11,.13-.1,.25-.2,.37-.31,.09-.07,.18-.14,.27-.21,.09-.06,.15-.04,.2,.05,.02,.03,.03,.06,.04,.09,.03,.1,.07,.21,.1,.31,.06,.19,.12,.37,.19,.56,.03,.08,.08,.14,.18,.15Zm-1.6-2.38v-.04c-.08-.03-.17-.07-.26-.08-.47-.08-.93-.15-1.4-.23-.99-.17-1.99-.34-2.98-.51-1.18-.2-2.36-.4-3.54-.6-.23-.04-.46-.07-.69-.03-.1,.02-.12,.03-.13,.13-.05,.33-.08,.67-.07,1.01,0,.17,.03,.33,.02,.5-.03,.35,.04,.68,.13,1,.06,.19,.19,.29,.38,.33,.23,.04,.45,.07,.68,.11,1.48,.25,2.96,.5,4.45,.76,1.48,.25,2.97,.51,4.45,.76,1.76,.3,3.51,.6,5.27,.9,.1,.02,.2,0,.3,0-.01-.13-.1-.16-.21-.18-.65-.11-1.3-.22-1.95-.34-1.16-.2-2.32-.4-3.48-.6-1.01-.17-2.03-.35-3.04-.52-1.15-.2-2.3-.39-3.45-.59-.93-.16-1.85-.32-2.78-.48-.24-.04-.39-.16-.45-.4-.07-.28-.11-.57-.12-.87-.01-.41-.02-.82-.03-1.23,0-.08,.02-.12,.1-.14,.02,0,.04,0,.06,0,.1,0,.21,0,.31,.02,.81,.13,1.62,.26,2.43,.39,.9,.14,1.8,.28,2.69,.42,1,.16,2.01,.32,3.01,.48,.1,.02,.2,.01,.3,.02Zm6.4,2.42s.01-.04,.02-.06c.03-.13,.05-.26,.08-.39,.01-.05,0-.08-.05-.09-.14-.03-.27-.06-.41-.08-1.07-.17-2.14-.35-3.22-.52-.26-.04-.51-.08-.77-.12-.11-.02-.14,0-.16,.11,0,.01,0,.03,0,.04-.02,.25-.03,.5-.05,.74-.01,.15,0,.16,.15,.19h0l.56,.09c1.16,.19,2.33,.38,3.49,.57,.06,0,.11,.02,.17,.03,.08,0,.09,0,.12-.07,.04-.09,.03-.19,.03-.29,0-.04-.02-.06-.06-.06-.17-.03-.35-.05-.52-.08-1.05-.22-2.11-.41-3.18-.56-.11-.02-.22-.06-.33-.09v-.03s.08,0,.11,0c.46,0,.91,.07,1.35,.15,.75,.14,1.49,.29,2.23,.43,.14,.03,.29,.05,.44,.08Zm-.62-1.99s.06,.02,.08,.02c.38,.07,.75,.14,1.13,.22,.05,.01,.08,0,.12-.04,1.34-1.6,2.68-3.21,4.02-4.81l.05-.06-.05-.04s-.04,.03-.06,.05c-.74,.65-1.49,1.3-2.23,1.95-.98,.86-1.97,1.72-2.95,2.58-.04,.03-.07,.09-.11,.14Zm7.25-6.97c-.17-.11-.35-.16-.53-.21-.05-.01-.08,.02-.07,.07,0,.05,.01,.1,.01,.16,0,.03-.01,.06-.03,.08-.17,.16-.35,.32-.52,.47-1.93,1.63-3.87,3.26-5.81,4.89-.51,.43-1.02,.86-1.53,1.29-.07,.06-.13,.12-.21,.19,.1,.03,.19,.05,.27,.08,.05,.02,.08,0,.12-.03,2.74-2.31,5.49-4.62,8.23-6.92,.02-.02,.04-.03,.06-.05ZM1.04,10.87l-.02,.02c.04,.09,.06,.18,.11,.27,.04,.09,.12,.15,.22,.18,.16,.05,.32,.11,.49,.15,2.87,.75,5.75,1.49,8.63,2.24,.1,.03,.2,.04,.31,.06,0-.07,.02-.12,.03-.18,0-.11-.04-.16-.15-.19-.83-.19-1.66-.38-2.48-.58-2.22-.54-4.41-1.16-6.59-1.83-.18-.05-.36-.1-.54-.15Zm6.58,3.06c0-.05-.02-.08-.06-.09-.04-.01-.08-.03-.11-.04-1.51-.41-3.02-.83-4.53-1.24-.2-.05-.4-.1-.6-.15-.02,0-.06,0-.07,.01-.08,.07-.16,.15-.23,.23-.05,.06-.08,.13-.1,.21-.02,.09,0,.12,.09,.13,.41,.07,.81,.13,1.22,.2,1.18,.19,2.35,.39,3.53,.58,.28,.05,.57,.09,.86,.14Zm5.26-.54s-.01,.04-.01,.06c-.03,.29-.04,.58-.02,.87,0,.04,.03,.05,.06,.06,.6,.15,1.2,.31,1.8,.46,.02,0,.04,0,.07,.02,0-.04,0-.06,0-.09-.01-.27-.03-.54-.04-.81,0-.06-.02-.08-.08-.1-.47-.13-.95-.26-1.42-.38-.12-.03-.24-.06-.37-.08Zm-.28,3.76c-.06,0-.09,.04-.08,.1,.01,.07,.02,.14,.04,.21,.02,.13,.02,.13,.15,.15,1.2,.2,2.4,.41,3.6,.61,.22,.04,.43,.07,.65,.11,.08,.01,.11-.02,.1-.1,0-.06-.02-.11-.03-.17,0-.07-.04-.09-.1-.1-1.24-.23-2.47-.46-3.71-.7-.2-.04-.41-.07-.62-.11Zm4.67-1.34s-.03,0-.04-.01c-.41-.07-.83-.14-1.25-.15-.07,0-.11,.02-.14,.07-.14,.24-.33,.29-.58,.22-.31-.09-.63-.16-.94-.26-.46-.14-.93-.24-1.41-.28-.22-.02-.22-.02-.27,.2-.02,.08,0,.11,.08,.12,.37,.06,.75,.11,1.12,.17,.69,.11,1.38,.21,2.06,.32,.42,.06,.85,.11,1.24,.3,.04,.02,.09,0,.11-.04,.01-.06,.03-.13,.01-.19-.03-.13-.03-.25,0-.38,0-.02,0-.05,0-.08Zm6.46-1.57c-.09,.01-.14,.05-.17,.11-.04,.09-.08,.18-.13,.26-.03,.06-.07,.12-.12,.18-.09,.12-.19,.23-.27,.35-1.18,1.75-2.36,3.51-3.53,5.27-.29,.43-.58,.86-.87,1.29-.1,.16-.23,.28-.43,.31h-.01c0,.06,0,.11,.02,.16,0,.01,.03,.03,.05,.03,.2,.02,.2,.01,.32-.15,.02-.02,.03-.05,.05-.07,1.14-1.7,2.28-3.41,3.42-5.11,.38-.57,.75-1.14,1.13-1.7,.02-.03,.05-.07,.08-.09,.11-.08,.19-.18,.25-.3,.05-.09,.1-.18,.13-.27,.03-.08,.05-.17,.08-.27Zm-10.73-1.8c-.03,.16-.06,.3-.08,.45,0,.06,0,.13,0,.19,0,.05,.02,.07,.07,.08,.52,.17,1.04,.32,1.57,.42,.05,.01,.1,.01,.16,.02,0-.03,0-.04,0-.06,0-.2,0-.41-.01-.61,0-.05-.02-.06-.06-.07-.43-.11-.87-.23-1.3-.34l-.35-.09Zm8.98,.67l-.07,.08c-1.25,1.47-2.49,2.94-3.74,4.41-.22,.26-.44,.52-.66,.78-.05,.06-.04,.1,.02,.14,.06,.04,.12,.03,.18-.03,.05-.05,.1-.11,.14-.17,1.35-1.67,2.7-3.33,4.06-5,.04-.05,.08-.11,.12-.17l-.06-.05Zm-7.28-.81s-.03-.01-.05-.01c-.5-.1-.99-.21-1.49-.31-.03,0-.06-.01-.08,0-.02,0-.05,.03-.06,.05-.03,.09-.03,.18,0,.28,.01,.03,.03,.05,.06,.06,.46,.1,.92,.2,1.38,.3,.08,.02,.15,.03,.24,.04v-.39Zm.58,3.37c.03-.14-.02-.21-.15-.24-.5-.13-1.01-.25-1.51-.38-.23-.06-.46-.13-.69-.19-.06-.02-.12,.02-.13,.06-.01,.04,.03,.11,.08,.13,.04,.01,.08,.02,.12,.03,.69,.19,1.37,.38,2.06,.57,.07,.02,.14,.02,.21,.03Zm.31-.23c.07,.03,.12,.04,.17,0,.04-.04,.09-.07,.13-.1,.46-.4,.91-.8,1.37-1.19,.24-.21,.46-.45,.72-.64,.04-.03,.07-.08,.11-.12v-.02c-.06,.02-.11,.04-.15,.07-.16,.12-.31,.26-.46,.39-.6,.49-1.19,.99-1.78,1.49-.04,.03-.07,.08-.11,.12Zm2.6-2.17c.09-.02,.18-.09,.22-.19-.09,.02-.18,.09-.22,.19Zm3.94-.31c.11-.03,.18-.11,.19-.24l-.19,.24Zm-3.81,8.05h.02l.05-.14h-.03l-.05,.14ZM7.82,13.9l-.14,.02c.05,.03,.1,.04,.14-.02Zm11.01-1.22l-.1,.09s.06,.01,.1-.09Z"/><path class="b" d="M.26,9.49c0-.36,.04-.69,.12-1.02,.09-.35,.28-.64,.52-.91,.08-.1,.19-.16,.31-.2,.08-.03,.16-.07,.24-.11,2.66-1.43,5.31-2.86,7.97-4.3,.02-.01,.05-.03,.07-.04,.45-.17,.86-.45,1.28-.67,.17-.09,.35-.19,.53-.28,.42-.21,.87-.26,1.33-.16,1.16,.24,2.33,.47,3.49,.7,1.42,.29,2.84,.57,4.26,.86,.84,.17,1.68,.34,2.51,.51,.07,.01,.14,.04,.21,.06,.06,.02,.07,.06,.05,.11-.01,.03-.04,.06-.06,.08-1.09,.85-2.17,1.7-3.26,2.55-1.54,1.2-3.08,2.41-4.62,3.61-.04,.03-.09,.05-.14,.05-.06,0-.12,0-.18-.02-.25-.07-.5-.11-.73-.22-.11-.05-.23-.06-.35-.08-2.06-.42-4.13-.84-6.19-1.26-1.84-.37-3.67-.75-5.51-1.12-.1-.02-.2-.04-.3-.05-.31-.03-.56,.08-.76,.31-.28,.31-.43,.69-.51,1.1-.11,.62-.06,1.22,.22,1.79,.11,.22,.24,.44,.37,.65,.09,.14,.23,.22,.39,.26,.25,.07,.5,.13,.75,.2,2,.55,3.99,1.1,5.99,1.65,.77,.21,1.54,.42,2.3,.64,.06,.02,.12,.03,.17,.06,.07,.03,.08,.08,.05,.14-.02,.04-.04,.05-.08,.04-.35-.1-.71-.19-1.06-.28-2.67-.73-5.33-1.46-8-2.19-.08-.02-.15-.04-.23-.06-.23-.05-.4-.19-.53-.37-.17-.23-.29-.48-.39-.75-.16-.42-.21-.86-.21-1.28Zm15.41-.37h-.02s-.03,0-.04,0c-.18,.1-.36,.18-.53,.29-.24,.14-.48,.15-.73,.06-.09-.03-.18-.06-.27-.08-.4-.09-.81-.17-1.21-.26-.29-.06-.57-.14-.86-.15-.02,0-.04,0-.07,0,.05,.08,.12,.11,.2,.13,.6,.15,1.19,.3,1.79,.44,.27,.06,.54,.12,.81,.17,.21,.04,.39-.03,.54-.18,.13-.12,.25-.25,.38-.37,.02-.02,.02-.04,.03-.06ZM3.98,6.39h0s-.02,0-.03,0c-.48,.17-.92,.39-1.34,.67-.07,.05-.12,.12-.18,.18,.11,.07,.22,.11,.34,.13,.36,.05,.72,.1,1.08,.15,.15,.02,.31,.04,.46,.06,.05,0,.1,0,.14,0,0-.02-.02-.02-.02-.02-.45-.1-.89-.26-1.35-.3-.11-.01-.22-.05-.33-.07v-.02l1.24-.75ZM12.26,1.95v.04s.05,.05,.08,.06c.09,.03,.19,.06,.29,.08,.65,.14,1.3,.28,1.95,.41,.06,.01,.13,0,.22,0l-.05-.04c-.15-.1-.32-.15-.48-.2-.59-.17-1.19-.27-1.79-.35-.07,0-.14,0-.21-.01Zm9.48,2.53c.22-.07,.42-.17,.57-.35,.06-.07,.05-.12-.05-.14-.32-.07-.64-.15-.96-.22-.14-.03-.29-.06-.43-.08-.01,0-.03,.02-.05,.02,.01,.01,.02,.04,.03,.04,.32,.1,.64,.2,.96,.3,.08,.02,.16,.05,.26,.07-.1,.08-.19,.15-.28,.22-.04,.03-.08,.06-.06,.13ZM12.05,1.97v-.03c-.08,0-.16,0-.23,.01-.2,.07-.37,.18-.52,.34-.01,.01-.02,.03-.04,.05,.27-.1,.55-.19,.78-.37Z"/><path class="b" d="M10.46,11.23s.06,.04,.09,.06c.12,.04,.23,.09,.35,.13,.04,.01,.06,.03,.05,.07,0,.05,0,.09-.02,.14-.07,.2-.09,.41-.11,.62-.01,.11-.03,.23-.05,.35-.39-.03-.75-.18-1.14-.21,.02,.01,.04,.02,.06,.03,.23,.08,.46,.16,.69,.23,.1,.03,.21,.07,.31,.09,.05,.01,.07,.04,.08,.09,0,.11,.01,.22,.02,.32,0,.04,0,.08,0,.12,0,.07-.03,.1-.1,.1-.04,0-.08,0-.12-.02-2.84-.83-5.7-1.59-8.56-2.37-.33-.09-.66-.16-.98-.24-.05-.01-.07-.03-.09-.07-.04-.13-.09-.26-.14-.4,.07,0,.13,0,.18,.02,1.23,.4,2.49,.66,3.75,.96,.95,.22,1.9,.47,2.85,.7l.1,.03c-.01-.07-.06-.08-.11-.1-.23-.07-.47-.14-.7-.22-.8-.26-1.62-.44-2.43-.64-1.14-.27-2.27-.55-3.4-.88-.07-.02-.13-.05-.2-.07-.06-.02-.08-.05-.09-.11-.03-.14-.03-.28,.02-.43,.03,0,.07,.02,.1,.02,.57,.12,1.13,.32,1.69,.48,.9,.26,1.81,.45,2.73,.61,1.15,.2,2.29,.45,3.42,.71,.58,.13,1.16,.26,1.75,.38,.02,0,.04,0,.06,0,0-.06-.04-.08-.09-.09-1.32-.39-2.65-.75-4-1.01-.63-.12-1.26-.22-1.89-.36-.81-.17-1.61-.37-2.41-.56-.44-.1-.88-.21-1.31-.31-.04-.01-.05-.03-.06-.07,0-.15,.04-.29,.08-.44,.14,.03,.27,.05,.4,.09,.99,.28,1.99,.49,2.99,.69,1.1,.21,2.21,.42,3.31,.62,.09,.02,.18,.03,.28,.04-.02-.06-.07-.08-.11-.09-.24-.06-.47-.12-.71-.17-1.33-.29-2.66-.59-3.99-.87-.68-.15-1.36-.28-2.04-.42-.05-.01-.07-.04-.07-.09,0-.09,.03-.17,.1-.23,.1-.08,.2-.12,.34-.09,1.61,.36,3.21,.72,4.82,1.08,.01,0,.03,0,.05,0,0-.06-.05-.07-.1-.09-.29-.08-.59-.17-.88-.25-1.06-.32-2.14-.55-3.23-.78-.18-.04-.35-.08-.53-.11h-.03c-.07-.03-.15-.04-.17-.12-.02-.09,.03-.16,.08-.22,.03-.04,.08-.02,.12-.02,.25,.05,.49,.1,.74,.15,3.04,.66,6.08,1.32,9.12,1.99,1.06,.23,2.12,.48,3.18,.72,.06,.01,.09,.04,.1,.1,.02,.14,.05,.28,.08,.42h-.03c-.33-.18-.69-.24-1.04-.32-.49-.11-.97-.23-1.46-.33-.8-.17-1.6-.33-2.4-.49-.2-.04-.41-.06-.62-.09-.04,0-.08,0-.12,0v.02s.05,.04,.09,.05c.89,.21,1.77,.42,2.66,.64,.46,.11,.92,.25,1.39,.36,.47,.11,.94,.19,1.42,.29,.13,.03,.14,.03,.14,.16,0,.12,0,.24-.01,.36,0,.03-.05,.06-.08,.07-.03,.01-.06,0-.09,0-1.12-.23-2.25-.46-3.37-.68-.23-.05-.46-.07-.69-.11v.02Zm-.07-.04v-.03h-.12v.03h.12Z"/><path class="b" d="M15.02,11.99c-.09-.19-.12-.37-.05-.57,0-.01,.02-.03,.03-.03,.76-.45,1.46-.99,2.16-1.54,.24-.19,.47-.4,.7-.6,.03-.03,.05-.07,.06-.11-.02,0-.04,.01-.06,.02-.12,.07-.24,.12-.35,.2-.76,.53-1.5,1.08-2.23,1.65-.07,.06-.15,.11-.22,.16-.03,.02-.05,.02-.07,0-.07-.08-.06-.18-.05-.27,0,0,.03-.02,.04-.02,.26,0,.47-.12,.67-.28,1.15-.93,2.3-1.86,3.45-2.78,1.15-.92,2.29-1.84,3.44-2.76,.09-.07,.19-.14,.28-.21,.09,.16,.06,.35-.08,.46-.7,.58-1.4,1.17-2.11,1.75-.09,.08-.18,.17-.27,.26v.02s.04,0,.06-.01c.06-.04,.12-.07,.17-.11,.53-.41,1.05-.83,1.58-1.24,.15-.12,.3-.25,.45-.37,.06-.04,.12-.08,.19-.14,.02,.05,.03,.09,.04,.13,0,.16,0,.31,0,.47,0,.04-.01,.07-.05,.1-.56,.49-1.12,.99-1.68,1.49-.32,.29-.64,.57-.96,.86-.02,.02-.04,.04-.05,.07,.02-.01,.04-.02,.06-.03,.3-.18,.57-.4,.85-.62,.59-.46,1.15-.94,1.7-1.44,.02-.02,.05-.06,.08-.03,.02,.02,.04,.05,.04,.08,0,.21,0,.43,0,.64,0,.03-.02,.07-.04,.1-.41,.42-.86,.78-1.31,1.15-.28,.23-.56,.47-.84,.7-.02,.01-.03,.03-.05,.05,.03,.05,.06,.04,.09,.01,.42-.3,.84-.59,1.26-.9,.27-.2,.53-.41,.8-.62,.02-.01,.06-.03,.07-.02,.02,.02,.04,.05,.04,.08,0,.14,0,.28,0,.42,0,.08-.03,.14-.09,.19-.1,.09-.21,.18-.31,.27-2.31,1.94-4.62,3.88-6.92,5.82-.12,.1-.25,.21-.38,.31-.02,.02-.04,.02-.08,.05-.02-.1-.05-.2-.05-.29-.01-.19-.02-.38,0-.57,0-.04,.06-.08,.1-.11,.24-.14,.49-.27,.72-.41,.36-.23,.69-.5,1.01-.77,.68-.58,1.35-1.16,2.03-1.75,.02-.01,.03-.03,.05-.05-.04-.04-.08-.03-.11,0-.18,.13-.37,.26-.55,.4-.76,.59-1.52,1.18-2.29,1.76-.28,.21-.57,.4-.85,.59-.02,.01-.06,.02-.08,.01-.02,0-.03-.05-.03-.07,0-.2,0-.39,0-.59,0-.03,.02-.06,.04-.08,.23-.17,.46-.34,.69-.51,.05-.04,.11-.08,.12-.16-.1,0-.17,.05-.24,.1-.14,.1-.28,.2-.42,.31-.06,.04-.12,.08-.2,.13,0-.13-.02-.23-.02-.34,0-.02,.02-.04,.04-.06,.37-.28,.73-.57,1.1-.85,.41-.32,.82-.64,1.23-.96,.02-.02,.04-.03,.05-.05-.04-.05-.07-.04-.11-.01-.62,.33-1.19,.73-1.73,1.16-.16,.12-.31,.25-.47,.37-.02,.01-.03,.02-.05,.04Z"/><path class="b" d="M1.13,18.66c.39,.06,.77,.2,1.17,.18-.02,0-.04-.02-.06-.03-.3-.13-.61-.2-.93-.29-.08-.02-.16-.04-.23-.07-.02,0-.04-.03-.05-.05-.01-.03-.02-.07-.02-.11-.01-.06,.02-.09,.08-.08,.09,.02,.18,.05,.27,.07,1.12,.29,2.26,.52,3.41,.69,1.03,.16,2.07,.31,3.1,.46,.84,.12,1.69,.23,2.53,.35,.1,.01,.16,0,.23-.03-.19-.04-.37-.08-.56-.11-.8-.13-1.61-.26-2.41-.39-.95-.15-1.9-.3-2.85-.46-1.08-.17-2.16-.39-3.23-.61-.18-.04-.37-.08-.55-.11-.05-.01-.07-.04-.08-.09-.02-.14-.01-.22,.03-.32,.12,.02,.24,.05,.36,.07,.68,.12,1.37,.24,2.05,.36,.79,.14,1.57,.28,2.36,.42,.8,.15,1.59,.3,2.39,.45,.04,0,.08,0,.12,0v-.02s-.04-.01-.06-.02c-1.19-.34-2.39-.63-3.61-.83-1.11-.19-2.22-.37-3.32-.56-.09-.02-.19-.03-.28-.05-.02-.12,.03-.19,.14-.18,.19,.02,.37,.04,.56,.07,1.12,.18,2.23,.36,3.35,.55,.92,.15,1.83,.3,2.75,.45,.89,.15,1.78,.29,2.67,.43,.86,.14,1.72,.28,2.58,.42,1.05,.17,2.1,.35,3.15,.52,.52,.09,1.04,.18,1.55,.26,.07,.01,.15,0,.22-.01,.06,0,.08,.02,.08,.06,0,.11-.08,.19-.19,.18-.85-.12-1.71-.24-2.56-.36-.27-.04-.55-.08-.82-.12-.02,0-.03,0-.05,0,0,.06,.03,.08,.07,.09,.35,.07,.7,.16,1.05,.22,.76,.13,1.53,.25,2.29,.38,.11,.02,.1,0,.1,.12,0,.07-.02,.15-.03,.22,0,.05-.03,.07-.08,.06-.37-.05-.74-.1-1.11-.16-.64-.09-1.29-.19-1.93-.27-.23-.03-.47-.04-.7-.05v.03c.06,.02,.12,.05,.18,.06,.66,.12,1.32,.24,1.98,.36,.44,.07,.88,.13,1.32,.2,.09,.01,.18,.04,.27,.06,.05,0,.05,.05,.05,.08,0,.04-.03,.07-.07,.06-.07,0-.14,0-.21-.01-.4-.04-.79-.08-1.19-.12-.05,0-.11,0-.16,0v.03c.05,.02,.11,.06,.17,.07,.46,.08,.92,.15,1.38,.22,.04,0,.07,.03,.08,.07,.04,.1,.03,.21,.01,.33-.11,0-.21,0-.32,0-.26,0-.51-.06-.76-.1-1.34-.24-2.67-.49-4.01-.74-1.23-.23-2.47-.45-3.7-.68-1.31-.24-2.63-.48-3.94-.72-.91-.17-1.81-.33-2.72-.49-.37-.07-.74-.12-1.1-.18-.16-.03-.21-.08-.2-.26Z"/><path class="b" d="M18.15,19.7c-.17,.07-.32,.08-.48,.06-1.71-.28-3.42-.56-5.13-.84-1.24-.2-2.47-.41-3.71-.61-1.5-.24-3-.49-4.49-.73-.96-.16-1.91-.31-2.87-.47-.15-.02-.29-.06-.43-.09-.05-.01-.09,0-.1,.05,0,.03-.03,.05-.05,.07-.15,.15-.21,.33-.19,.53,.02,.3,.05,.61,.08,.91,.02,.16,.09,.3,.18,.43,.05,.08,.14,.12,.24,.14,.97,.12,1.93,.34,2.89,.51,1.27,.22,2.53,.46,3.8,.7,1.17,.21,2.33,.43,3.5,.64,1.28,.23,2.55,.46,3.83,.7,.65,.12,1.3,.24,1.95,.35,.23,.04,.46,.05,.68,.06,.06,0,.08,.02,.09,.08,0,.07,.02,.13,.03,.22-.11,0-.22,0-.32-.02-.6-.11-1.2-.23-1.8-.33-.54-.1-1.09-.19-1.63-.28-1.12-.2-2.23-.39-3.35-.59-1.2-.21-2.41-.42-3.61-.64-.98-.17-1.97-.35-2.95-.52-1.02-.18-2.04-.36-3.06-.54-.15-.03-.29-.08-.43-.13-.14-.05-.21-.16-.24-.3-.09-.35-.13-.71-.13-1.07,0-.32,.02-.64,.03-.96,0-.02,0-.05,0-.07,.03-.16,.11-.24,.28-.23,.18,.01,.36,.05,.53,.08,.94,.16,1.87,.32,2.81,.48,.96,.16,1.91,.33,2.87,.49,1.08,.19,2.16,.37,3.24,.56,1.08,.19,2.17,.37,3.25,.56,1.28,.22,2.55,.44,3.83,.66,.27,.05,.54,.09,.81,.14,0,0,.02,0,.05,.01Z"/><path class="b" d="M2.11,15.28c.12-.01,.22,.03,.32,.05,.45,.12,.89,.24,1.34,.34,.42,.09,.84,.13,1.26,.2,.12,.02,.24,.03,.35,.04,.03,0,.07,0,.1-.01,0,0-.01,0-.02-.01-.94-.17-1.87-.4-2.8-.62-.17-.04-.34-.08-.51-.12-.04,0-.05-.03-.06-.07-.01-.1-.03-.2,0-.31,.16,.04,.32,.08,.48,.13,1.09,.3,2.2,.51,3.32,.65,1.04,.13,2.08,.24,3.12,.37,.53,.06,1.05,.14,1.57,.21,.06,0,.09,.03,.08,.09-.03,.12-.05,.24-.09,.35-.03,.1-.09,.2-.13,.3-.03,.08,.04,.17,.12,.15,.1-.02,.19-.05,.28-.1,.1-.05,.2-.11,.3-.17,.01,0,.02-.02,.03-.03,.07-.08,.13-.16,.21-.23,.07-.07,.16-.14,.24-.22,.12,.19,.15,.39,.25,.59l-.45-.05v.02c.07,.03,.15,.07,.23,.1,.1,.03,.22,.04,.29,.1,.08,.06,.12,.17,.17,.26,.05,.08,.1,.16,.15,.25-.11-.02-.2-.03-.3-.05-.94-.16-1.88-.32-2.82-.48-1.15-.2-2.3-.4-3.45-.59-.95-.16-1.91-.33-2.86-.49-.15-.03-.29-.05-.44-.07-.14-.02-.23-.09-.26-.23-.03-.11-.04-.22-.07-.34Z"/><path class="b" d="M.72,16.43c.08-.08,.16-.17,.25-.25,.12-.11,.25-.21,.37-.31,.04-.04,.09-.02,.12,.04,.06,.11,.12,.21,.2,.31,.13,.16,.31,.25,.52,.28,.87,.15,1.73,.3,2.6,.45,1.02,.17,2.03,.35,3.05,.52,1.12,.19,2.24,.38,3.35,.57,.95,.16,1.89,.32,2.84,.48,1.06,.18,2.12,.37,3.19,.55,.04,0,.09,0,.14,.01,.07,0,.13-.02,.18-.07,.28-.22,.49-.49,.72-.77,1.46-1.8,2.93-3.61,4.4-5.41,.1-.13,.16-.27,.17-.43,0-.14,.03-.27,.05-.41,0-.02,.02-.05,.04-.06,.11-.06,.22-.07,.34-.05,.07,.01,.14,.04,.21,.05,.03,0,.05,.03,.03,.06-.02,.05-.04,.1-.07,.14-.83,1.19-1.66,2.37-2.49,3.56-.69,.99-1.38,1.98-2.08,2.97-.06,.08-.12,.15-.19,.22-.03,.03-.09,.05-.13,.07-.13,.06-.18,.16-.15,.29,.02,.08-.03,.14-.06,.2,0,0-.04,0-.06,0-.33-.06-.65-.11-.98-.17-1.16-.2-2.31-.4-3.47-.6-1.01-.17-2.01-.35-3.02-.52-1.08-.19-2.17-.37-3.25-.56-1.08-.19-2.16-.37-3.24-.56-1.16-.2-2.32-.4-3.48-.6-.03,0-.06-.01-.09-.02v-.02Z"/><path class="b" d="M20.87,12.67c.09-.09,.18-.17,.25-.26,.23-.27,.45-.54,.68-.81,.08-.09,.16-.18,.25-.27,.02-.02,.03-.03,.06-.06,.01,.07,.03,.13,.04,.19,0,.28,0,.55,.05,.83,0,.03,0,.06-.02,.08-.08,.13-.15,.27-.25,.39-.32,.39-.66,.78-.99,1.16-1.12,1.31-2.24,2.63-3.35,3.94-.08,.09-.16,.17-.23,.26-.09-.07-.11-.17-.05-.26,.05-.08,.12-.15,.17-.22,.13-.15,.26-.31,.4-.48-.09,.02-.15,.05-.2,.1-.06,.06-.11,.13-.17,.19-.05,.05-.1,.09-.16,.15-.03-.14-.03-.25,.02-.36,.04-.09,.1-.17,.17-.25,.5-.57,1.01-1.13,1.5-1.69,.21-.24,.4-.48,.59-.73,.01-.02,.02-.03,.03-.06-.02,.02-.04,.03-.06,.05-.47,.4-.89,.85-1.3,1.31-.25,.28-.49,.55-.74,.83-.01,.02-.03,.03-.05,.05-.05-.07-.06-.12,0-.19,.06-.08,.12-.16,.18-.23,.42-.46,.83-.92,1.25-1.38,.08-.09,.16-.2,.24-.3,.01-.02,.02-.04,.04-.06l-.02-.02c-.07,.06-.15,.11-.21,.18-.34,.36-.68,.73-1.02,1.09-.08,.09-.17,.18-.26,.27-.01-.1-.05-.2,.04-.3,1.44-1.7,2.88-3.4,4.31-5.1,0,0,0-.01,.02-.02,.02-.01,.03-.02,.05-.03,.01,.02,.03,.03,.03,.05,.03,.11,0,.22-.05,.31-.02,.04-.05,.08-.08,.12-.35,.43-.7,.85-1.05,1.28-.02,.03-.05,.06-.07,.08-.03,.04-.05,.08-.03,.15Zm1.15-.92c-.11,0-.17,.08-.17,.18l.17-.18Z"/><path class="b" d="M8.08,15.2c-.02-.07-.06-.08-.11-.09-.49-.1-.98-.2-1.48-.3-1.37-.26-2.75-.52-4.12-.78-.06-.01-.12-.03-.18-.05-.09-.02-.12-.07-.11-.16,.01-.1,.05-.13,.15-.12,1.51,.24,3.01,.47,4.52,.71,1.3,.2,2.59,.41,3.89,.61,.06,0,.1,.04,.1,.09,0,.07,0,.14,0,.2,0,.02-.05,.04-.09,.04-.09,0-.17,0-.26,0v.02s.05,.04,.09,.05c.06,.02,.13,.04,.19,.06,.04,.01,.06,.04,.07,.09,.02,.14,0,.27-.05,.4-.01,.03-.03,.04-.06,.03-.68-.11-1.36-.21-2.05-.32-.74-.11-1.49-.21-2.23-.32-.91-.13-1.83-.23-2.74-.41-.49-.1-.98-.2-1.48-.3-.03,0-.06-.03-.07-.06-.06-.14-.02-.28,0-.41,0-.01,.03-.03,.05-.03,.08,0,.16,0,.23,.01,.47,.11,.93,.24,1.41,.33,.72,.14,1.44,.26,2.17,.37,.58,.09,1.17,.17,1.75,.26,.14,.02,.27,.04,.42,.05Z"/><path class="b" d="M18.21,20.78c-.01-.21,0-.4,.17-.56,.08-.08,.16-.17,.22-.27,.65-.96,1.29-1.91,1.93-2.87,.03-.05,.06-.11,.09-.17h-.02s-.1,.08-.15,.13c-.09,.1-.17,.2-.25,.31-.56,.83-1.12,1.65-1.68,2.48-.04,.05-.07,.1-.16,.08,.01-.02,.02-.05,.03-.07,.24-.45,.53-.87,.82-1.28,1.31-1.88,2.63-3.75,3.94-5.63,.07-.1,.14-.19,.22-.29,.04,.19,.04,.35-.06,.5-.11,.18-.22,.36-.34,.53-.42,.6-.84,1.2-1.26,1.81-.03,.05-.05,.1-.07,.16,.06,0,.09-.04,.12-.08,.38-.52,.76-1.04,1.13-1.56,.11-.15,.21-.29,.31-.44,.01-.02,.04-.04,.06-.04,.04,0,.06,.04,.06,.08,0,.08-.02,.17-.02,.25-.01,.13-.03,.26-.04,.39-.01,.11-.05,.21-.12,.3-1.54,2.3-3.09,4.6-4.63,6.9-.06,.09-.12,.17-.19,.25-.02,.02-.06,.04-.08,.03-.03-.01-.06-.04-.07-.07-.03-.1,0-.19,.06-.28,.14-.21,.29-.43,.43-.64,.01-.02,.02-.04,.03-.06-.12,0-.15,.15-.28,.15l.33-.57h0s-.07,.02-.09,.05c-.1,.13-.19,.26-.29,.39-.03,.04-.07,.08-.11,.11l-.02-.02Zm3.41-5.13c-.07,.02-.08,.06-.06,.16l.06-.16Zm-2.87,4.57l.08-.1c-.05,0-.1,.02-.08,.1Z"/><path class="b" d="M12.28,17.15c-.1-.02-.15-.07-.18-.15-.06-.19-.12-.37-.19-.56-.03-.1-.07-.21-.1-.31-.01-.03-.02-.06-.04-.09-.06-.09-.11-.11-.2-.05-.09,.06-.18,.14-.27,.21-.12,.1-.25,.21-.37,.31-.05,.04-.11,.07-.19,.11,0-.06,0-.11,.01-.15,.11-.45,.13-.91,.21-1.36,.07-.44,.03-.87,.03-1.31,0-.4-.01-.8,0-1.19,.01-.29,.06-.58,.1-.88,0-.05,.03-.1,.04-.15,0-.04,.03-.05,.07-.04,.2,.04,.41,.07,.61,.12,.27,.07,.53,.15,.8,.22,.05,.01,.08,.05,.08,.1,0,.16,0,.31-.03,.47-.05,.41-.07,.82-.08,1.24-.01,.72-.08,1.43-.17,2.14-.05,.38-.08,.76-.12,1.14,0,.06-.02,.13-.03,.2Z"/><path class="b" d="M10.69,14.77c-.1,0-.2,0-.3-.02-1-.16-2.01-.32-3.01-.48-.9-.14-1.8-.28-2.69-.42-.81-.13-1.62-.26-2.43-.39-.1-.02-.21-.01-.31-.02-.02,0-.04,0-.06,0-.08,.02-.1,.06-.1,.14,0,.41,.01,.82,.03,1.23,0,.29,.05,.58,.12,.87,.06,.23,.2,.36,.45,.4,.93,.15,1.85,.32,2.78,.48,1.15,.2,2.3,.4,3.45,.59,1.01,.17,2.03,.35,3.04,.52,1.16,.2,2.32,.4,3.48,.6,.65,.11,1.3,.22,1.95,.34,.1,.02,.19,.06,.21,.18-.1,0-.2,.01-.3,0-1.76-.3-3.51-.6-5.27-.9-1.48-.25-2.97-.51-4.45-.76-1.48-.25-2.96-.5-4.45-.76-.23-.04-.45-.08-.68-.11-.19-.03-.33-.14-.38-.33-.1-.33-.16-.66-.13-1,.01-.17-.01-.33-.02-.5-.02-.34,.01-.67,.07-1.01,.02-.09,.04-.11,.13-.13,.23-.04,.46,0,.69,.03,1.18,.2,2.36,.4,3.54,.6,.99,.17,1.99,.34,2.98,.51,.47,.08,.93,.15,1.4,.23,.09,.02,.18,.05,.27,.08v.04Z"/><path class="b" d="M17.09,17.19c-.15-.03-.29-.05-.44-.08-.74-.15-1.49-.3-2.23-.43-.45-.08-.9-.15-1.35-.15-.04,0-.07,0-.11,0v.03c.11,.03,.21,.07,.32,.09,1.07,.14,2.13,.34,3.18,.56,.17,.04,.35,.06,.52,.08,.04,0,.06,.02,.06,.06,0,.1,0,.2-.03,.29-.03,.07-.04,.08-.12,.07-.06,0-.11-.02-.17-.03-1.16-.19-2.33-.38-3.49-.57l-.56-.09h0c-.15-.03-.16-.04-.15-.19,.02-.25,.03-.49,.05-.74,0-.01,0-.03,0-.04,.02-.11,.05-.13,.16-.11,.26,.04,.51,.08,.77,.12,1.07,.17,2.14,.35,3.22,.52,.14,.02,.27,.05,.41,.08,.05,.01,.06,.04,.05,.09-.03,.13-.05,.26-.08,.39,0,.02,0,.03-.02,.06Z"/><path class="b" d="M16.47,15.19c.04-.06,.07-.11,.11-.14,.98-.86,1.97-1.72,2.95-2.58,.74-.65,1.49-1.3,2.23-1.95,.02-.02,.04-.03,.06-.05l.05,.04-.05,.06c-1.34,1.6-2.68,3.21-4.02,4.81-.03,.04-.06,.05-.12,.04-.38-.08-.75-.15-1.13-.22-.02,0-.04,0-.08-.02Z"/><path class="b" d="M23.72,8.23s-.04,.04-.06,.05c-2.74,2.31-5.49,4.61-8.23,6.92-.04,.03-.07,.05-.12,.03-.08-.03-.17-.05-.27-.08,.07-.07,.14-.14,.21-.19,.51-.43,1.02-.86,1.53-1.29,1.94-1.63,3.87-3.26,5.81-4.89,.18-.15,.35-.31,.52-.47,.02-.02,.03-.05,.03-.08,0-.05,0-.1-.01-.16,0-.05,.02-.08,.07-.07,.18,.04,.36,.1,.53,.21Z"/><path class="b" d="M1.04,10.87c.18,.05,.36,.09,.54,.15,2.18,.67,4.38,1.28,6.59,1.83,.83,.2,1.66,.39,2.48,.58,.11,.03,.15,.08,.15,.19,0,.06-.02,.11-.03,.18-.11-.02-.21-.03-.31-.06-2.88-.74-5.75-1.49-8.63-2.24-.17-.04-.33-.1-.49-.15-.1-.03-.18-.09-.22-.18-.04-.09-.07-.18-.11-.27l.02-.02Z"/><path class="b" d="M7.62,13.92c-.29-.05-.57-.09-.86-.14-1.18-.19-2.35-.39-3.53-.58-.41-.07-.81-.13-1.22-.2-.09-.02-.12-.04-.09-.13,.02-.07,.05-.15,.1-.21,.07-.09,.15-.16,.23-.23,.02-.01,.05-.02,.07-.01,.2,.05,.4,.09,.6,.15,1.51,.41,3.02,.82,4.53,1.24,.04,.01,.08,.02,.11,.04,.04,.01,.06,.04,.06,.09Z"/><path class="b" d="M12.88,13.38c.13,.03,.25,.05,.37,.08,.47,.13,.94,.26,1.42,.38,.06,.02,.07,.04,.08,.1,0,.27,.02,.54,.04,.81,0,.03,0,.06,0,.09-.03,0-.05,0-.07-.02-.6-.15-1.2-.31-1.8-.46-.03,0-.06-.01-.06-.06-.02-.29-.01-.58,.02-.87,0-.01,0-.03,.01-.06Z"/><path class="b" d="M12.6,17.15c.21,.04,.41,.07,.62,.11,1.24,.23,2.47,.47,3.71,.7,.06,.01,.1,.03,.1,.1,0,.06,.02,.12,.03,.17,.01,.08-.02,.11-.1,.1-.22-.04-.43-.07-.65-.11-1.2-.2-2.4-.41-3.6-.61-.13-.02-.13-.02-.15-.15-.01-.07-.03-.14-.04-.21-.01-.06,.02-.1,.08-.1Z"/><path class="b" d="M17.27,15.81s0,.05,0,.08c-.02,.13-.02,.25,0,.38,.01,.06,0,.13-.01,.19-.01,.05-.06,.06-.11,.04-.39-.19-.82-.23-1.24-.3-.69-.11-1.38-.21-2.06-.32-.37-.06-.75-.11-1.12-.17-.08-.01-.1-.04-.08-.12,.05-.22,.05-.21,.27-.2,.48,.04,.95,.14,1.41,.28,.31,.1,.63,.17,.94,.26,.24,.07,.44,.02,.58-.22,.03-.05,.07-.08,.14-.07,.42,0,.84,.08,1.25,.15,.01,0,.02,0,.04,.01Z"/><path class="b" d="M23.73,14.24c-.03,.1-.05,.19-.08,.27-.04,.09-.09,.18-.13,.27-.06,.12-.15,.22-.25,.3-.03,.02-.06,.06-.08,.09-.38,.57-.75,1.14-1.13,1.7-1.14,1.7-2.28,3.41-3.42,5.11-.02,.02-.03,.05-.05,.07-.11,.17-.11,.17-.32,.15-.02,0-.04-.02-.05-.03-.01-.05-.01-.1-.02-.15h.01c.2-.04,.32-.17,.43-.32,.29-.43,.58-.86,.87-1.29,1.18-1.76,2.35-3.51,3.53-5.27,.08-.12,.18-.23,.27-.35,.04-.06,.08-.12,.12-.18,.05-.09,.09-.17,.13-.26,.03-.06,.07-.1,.17-.11Z"/><path class="b" d="M12.99,12.43l.35,.09c.43,.11,.87,.23,1.3,.34,.04,.01,.06,.03,.06,.07,0,.2,0,.41,.01,.61,0,.02,0,.03,0,.06-.06,0-.11-.01-.16-.02-.53-.11-1.06-.25-1.57-.42-.04-.01-.07-.04-.07-.08,0-.06,0-.13,0-.19,.02-.15,.05-.3,.08-.45Z"/><path class="b" d="M21.97,13.1l.06,.05c-.04,.06-.08,.12-.12,.17-1.35,1.67-2.7,3.33-4.06,5-.05,.06-.09,.11-.14,.17-.06,.06-.12,.07-.18,.03-.06-.04-.07-.08-.02-.14,.22-.26,.44-.52,.66-.78,1.25-1.47,2.49-2.94,3.74-4.41l.07-.08Z"/><path class="b" d="M14.7,12.29v.39c-.08-.01-.16-.02-.24-.04-.46-.1-.92-.2-1.38-.3-.04,0-.05-.02-.06-.06-.03-.09-.03-.19,0-.28,0-.02,.03-.04,.06-.05,.02,0,.05,0,.08,0,.5,.1,.99,.21,1.49,.31,.02,0,.03,0,.05,.01Z"/><path class="b" d="M15.28,15.66c-.07-.01-.14-.01-.21-.03-.69-.19-1.37-.38-2.06-.57-.04-.01-.08-.02-.12-.03-.05-.02-.1-.09-.08-.13,.01-.04,.07-.07,.13-.06,.23,.06,.46,.13,.69,.19,.5,.13,1.01,.26,1.51,.38,.13,.03,.18,.1,.15,.24Z"/><path class="b" d="M15.59,15.43s.07-.09,.11-.12c.59-.5,1.18-1,1.78-1.49,.16-.13,.3-.26,.46-.39,.04-.03,.09-.05,.14-.07v.02s-.05,.09-.1,.12c-.26,.19-.48,.43-.72,.64-.46,.4-.91,.8-1.37,1.19-.04,.04-.09,.07-.13,.1-.05,.04-.1,.04-.17,0Z"/><path class="b" d="M18.19,13.26c.04-.09,.13-.17,.22-.19-.04,.09-.13,.17-.22,.19Z"/><path class="b" d="M22.13,12.94l.19-.24c-.01,.13-.08,.2-.19,.24Z"/><path class="b" d="M18.31,20.99l.05-.15h.03l-.05,.16h-.02Z"/><path class="b" d="M7.82,13.9c-.05,.06-.09,.05-.14,.02l.14-.02Z"/><path class="b" d="M18.83,12.68c-.04,.1-.06,.11-.1,.09l.1-.09Z"/><path d="M15.67,9.12s-.02,.05-.03,.06c-.13,.13-.25,.25-.38,.37-.15,.14-.33,.22-.54,.18-.27-.05-.54-.11-.81-.17-.6-.14-1.19-.29-1.79-.44-.08-.02-.14-.05-.2-.13,.03,0,.05,0,.07,0,.29,.01,.58,.09,.86,.15,.4,.08,.81,.17,1.21,.26,.09,.02,.18,.05,.27,.08,.25,.09,.5,.08,.73-.06,.17-.1,.36-.19,.53-.29,.01,0,.03-.01,.04-.02h.02Z"/><path d="M3.98,6.39l-1.24,.75v.02c.11,.03,.22,.06,.33,.07,.46,.05,.9,.2,1.35,.3,0,0,.02,0,.02,.02-.05,0-.1,.01-.14,0-.16-.02-.31-.03-.46-.06-.36-.05-.72-.1-1.08-.15-.12-.02-.23-.06-.34-.13,.06-.06,.11-.13,.18-.18,.42-.28,.87-.5,1.34-.67,0,0,.02,0,.03,0h0Z"/><path d="M12.26,1.95c.07,0,.14,0,.21,.01,.6,.08,1.21,.18,1.79,.35,.17,.05,.34,.1,.48,.2l.05,.04c-.09,0-.16,.01-.22,0-.65-.13-1.3-.27-1.95-.41-.1-.02-.19-.05-.29-.08-.03-.01-.06-.04-.09-.06v-.04Z"/><path d="M21.74,4.48c-.02-.07,.02-.1,.06-.13,.09-.07,.18-.14,.28-.22-.1-.03-.18-.05-.26-.07-.32-.1-.64-.2-.96-.3-.01,0-.02-.03-.03-.04,.02,0,.03-.03,.05-.02,.14,.02,.29,.05,.43,.08,.32,.07,.64,.15,.96,.22,.1,.02,.11,.07,.05,.14-.15,.18-.35,.28-.57,.35Z"/><path d="M12.05,1.97c-.23,.18-.51,.27-.78,.37,.01-.02,.02-.03,.04-.05,.14-.16,.31-.27,.52-.34,.07-.02,.15,0,.23-.01v.03Z"/><path d="M10.4,11.19h-.12v-.02h.12v.02Z"/><path d="M22.02,11.75l-.17,.18c0-.09,.06-.17,.17-.18Z"/><path d="M21.62,15.65l-.06,.16c-.02-.1,0-.14,.06-.16Z"/><path d="M18.75,20.22c-.02-.08,.02-.09,.08-.1l-.08,.1Z"/></svg>